
<svg width="200" height="200" viewBox="0 0 200 200" fill="none" xmlns="http://www.w3.org/2000/svg">
  <circle cx="100" cy="100" r="98" fill="#0A2463" stroke="white" stroke-width="4"/>
  <path d="M100 25C84.8696 25 70.1089 29.6071 58.0532 38.1694C45.9976 46.7317 37.1924 58.7946 33.1236 72.5975C29.0547 86.4004 29.9525 101.142 35.6797 114.295C41.4068 127.449 51.6507 138.301 64.6447 145.147C77.6386 151.993 92.4951 154.453 107.037 152.124C121.579 149.796 134.861 142.818 144.858 132.222C154.854 121.626 160.999 108.009 162.193 93.4123C163.386 78.8152 159.566 64.256 151.421 52.221L100 100L100 25Z" fill="#D90429"/>
  <path d="M151.421 52.221C143.276 40.186 131.299 31.4972 117.676 27.4628C104.054 23.4284 89.5172 24.272 76.363 29.8486C63.2087 35.4252 52.3276 45.5186 45.4279 58.3839C38.528 71.2492 36.0003 86.0129 38.2572 100.489C40.514 114.966 47.4222 128.21 57.9629 138.208C68.5036 148.206 82.076 154.387 96.6527 155.646C111.229 156.906 125.8 153.17 137.876 145.111C149.952 137.052 158.7 125.162 162.809 111.596L100 100L151.421 52.221Z" fill="white"/>
  <circle cx="100" cy="100" r="25" fill="#0A2463"/>
  <path d="M100 40L102.377 47.1746H109.923L103.773 51.6507L106.15 58.8254L100 54.3493L93.8496 58.8254L96.2267 51.6507L90.0763 47.1746H97.6225L100 40Z" fill="#FFD700"/>
  <path d="M130 100L122.825 102.377V109.923L118.349 103.773L111.175 106.15L115.651 100L111.175 93.8496L118.349 96.2267L122.825 90.0763V97.6225L130 100Z" fill="#FFD700"/>
  <path d="M100 160L97.6225 152.825H90.0763L96.2267 148.349L93.8496 141.175L100 145.651L106.15 141.175L103.773 148.349L109.923 152.825H102.377L100 160Z" fill="#FFD700"/>
  <path d="M70 100L77.1746 97.6225V90.0763L81.6507 96.2267L88.8254 93.8496L84.3493 100L88.8254 106.15L81.6507 103.773L77.1746 109.923V102.377L70 100Z" fill="#FFD700"/>
</svg>
